<svg version="1.1" id="Layer_1" xmlns="http://www.w3.org/2000/svg" xmlns:xlink="http://www.w3.org/1999/xlink" x="0px" y="0px"
	 width="100%" viewBox="0 0 866 252" enable-background="new 0 0 866 252" xml:space="preserve">
<path fill="#FFFEFE" opacity="1.000000" stroke="none" 
	d="
M565.000000,253.000000 
	C376.708649,253.000000 188.917328,253.000000 1.062993,253.000000 
	C1.062993,169.060822 1.062993,85.121574 1.062993,1.091164 
	C289.666656,1.091164 578.333313,1.091164 866.966187,1.091164 
	C866.966187,85.082634 866.966187,169.041321 866.966187,253.000000 
	C766.454895,253.000000 665.977478,253.000000 565.000000,253.000000 
M558.095947,89.819695 
	C558.649292,94.393761 560.208374,94.939743 567.866333,93.091431 
	C567.866333,89.584915 567.866333,86.016556 567.866333,82.232559 
	C566.143372,81.800919 564.564636,81.405396 562.899414,80.203362 
	C562.349792,76.277100 560.272888,75.684357 553.256958,77.400604 
	C553.256958,81.138969 553.256958,84.841156 553.256958,88.577202 
	C555.085510,88.729218 556.552307,88.851158 558.095947,89.819695 
M562.436523,102.832573 
	C562.304810,101.581886 562.173157,100.331200 562.059875,99.255035 
	C558.926758,99.255035 556.199951,99.255035 553.437500,99.255035 
	C553.437500,119.549088 553.437500,139.468002 553.437500,159.594238 
	C555.120483,159.725571 556.579346,159.839432 558.317139,160.745560 
	C558.939514,165.459595 559.911255,165.828674 567.637695,164.139908 
	C567.637695,144.311615 567.637695,124.429909 567.637695,104.355164 
	C565.828857,104.122124 564.210022,103.913559 562.436523,102.832573 
M586.038696,160.877045 
	C586.588867,165.443634 587.570312,165.822601 594.846802,164.149841 
	C594.846802,136.216293 594.846802,108.235298 594.846802,79.878891 
	C593.117615,79.878891 591.659607,79.878891 590.012573,79.069153 
	C589.881409,77.639633 589.750305,76.210106 589.622498,74.817245 
	C586.550232,74.817245 583.813354,74.817245 581.151917,74.817245 
	C581.151917,103.339966 581.151917,131.533203 581.151917,159.697769 
	C583.002563,159.825836 584.490295,159.928787 586.038696,160.877045 
M388.941559,79.099403 
	C388.795074,77.670052 388.648621,76.240700 388.501556,74.805397 
	C385.428711,74.805397 382.697174,74.805397 379.857483,74.805397 
	C379.857483,103.246956 379.857483,131.353577 379.857483,159.613022 
	C381.679260,159.771896 383.319550,159.914948 384.990204,160.906921 
	C385.525848,165.421417 386.495209,165.792892 393.797119,164.160431 
	C393.797119,136.219879 393.797119,108.234932 393.797119,79.889511 
	C392.086884,79.889511 390.630188,79.889511 388.941559,79.099403 
M526.842407,159.905518 
	C528.227905,159.937576 529.613403,159.969635 531.140808,160.836441 
	C531.707886,165.436371 532.845032,165.860489 540.501953,164.172348 
	C540.501953,144.315659 540.501953,124.401138 540.501953,104.195854 
	C538.640259,104.052216 537.008179,103.926292 535.200500,102.935936 
	C535.118958,101.679443 535.037415,100.422943 534.956177,99.172043 
	C531.810242,99.172043 529.077148,99.172043 525.989502,99.172043 
	C525.989502,101.249550 525.993469,103.041206 525.988892,104.832848 
	C525.962830,114.947304 526.147644,125.068283 525.837830,135.174088 
	C525.602722,142.841583 521.674133,148.492233 514.383118,151.044785 
	C508.219238,153.202728 501.993073,153.479675 497.138672,147.214813 
	C496.553802,132.928162 495.968903,118.641518 495.369781,104.007072 
	C493.914825,104.007072 492.452759,104.007072 490.747620,103.178802 
	C490.604523,101.786285 490.461456,100.393776 490.326080,99.076065 
	C487.148529,99.076065 484.518127,99.076065 481.385010,99.076065 
	C481.385010,110.210953 481.528900,121.165108 481.346039,132.113800 
	C481.148712,143.926590 485.566986,153.106888 495.920502,159.910248 
	C503.900574,167.881531 518.976501,167.887009 526.842407,159.905518 
M664.936462,103.066231 
	C664.878418,101.796341 664.820374,100.526451 664.755371,99.105133 
	C661.603577,99.105133 658.841919,99.105133 655.934143,99.105133 
	C655.763184,101.702980 655.605713,104.095001 655.398987,107.236282 
	C654.174316,106.299194 653.546265,105.886024 652.995605,105.387375 
	C638.572266,92.325180 616.056335,96.771690 607.746521,114.330612 
	C599.919006,130.870377 605.330627,147.956329 621.905640,159.805771 
	C631.095886,167.854492 648.112061,167.916382 656.836914,159.897888 
	C658.214172,159.946701 659.591431,159.995514 661.013489,160.895187 
	C661.516602,165.437500 662.581299,165.844086 669.807373,164.132538 
	C669.807373,144.270782 669.807373,124.363708 669.807373,104.187874 
	C668.060669,104.086777 666.593506,104.001854 664.936462,103.066231 
M295.981079,160.784561 
	C295.683441,161.996597 295.385834,163.208633 295.073334,164.481262 
	C304.233154,165.442429 304.235901,165.443588 307.519836,157.667969 
	C309.327606,153.387650 310.959961,149.021210 313.019318,144.866013 
	C313.697052,143.498535 315.455902,141.757019 316.739014,141.741669 
	C328.185486,141.604767 339.636139,141.816223 351.479736,142.531219 
	C353.536591,147.369324 355.405182,152.302368 357.767548,156.986359 
	C358.456879,158.353119 360.554016,159.009842 362.273926,160.685623 
	C364.327911,167.420715 369.418427,164.290451 373.430542,164.663040 
	C373.632446,164.008194 373.767365,163.813370 373.717957,163.696365 
	C362.879547,138.027100 352.064850,112.347603 341.068054,86.746277 
	C340.524933,85.481789 338.391876,84.900238 336.559692,83.404396 
	C335.400116,77.559723 330.757050,79.562668 327.081482,79.013016 
	C323.204437,78.433228 322.343567,80.958229 321.230499,83.606384 
	C315.753143,96.637466 310.242554,109.654602 304.729187,122.670532 
	C299.549988,134.897552 294.352661,147.116898 289.033875,159.644547 
	C291.714355,159.784622 293.854034,159.896439 295.981079,160.784561 
M773.819397,156.886108 
	C774.861938,157.615829 775.904480,158.345551 776.989624,159.766663 
	C779.956299,161.459076 782.730774,163.927582 785.920959,164.717804 
	C806.451599,169.803375 824.773376,155.582474 823.475891,132.208313 
	C823.047424,124.488121 821.477417,116.741425 813.807068,111.336807 
	C800.559448,94.707977 784.890015,94.103600 767.501221,105.459312 
	C767.117249,102.649910 766.880920,100.920845 766.645447,99.198143 
	C763.602051,99.198143 760.871521,99.198143 758.171204,99.198143 
	C758.171204,127.594727 758.171204,155.686279 758.171204,183.763092 
	C759.964417,183.882156 761.454102,183.981064 763.015503,184.919144 
	C763.377014,192.473877 768.636963,187.433167 772.141357,189.226181 
	C772.141357,179.565247 772.077942,170.856903 772.192017,162.150894 
	C772.216370,160.291504 772.885376,158.440567 773.819397,156.886108 
M699.640137,157.150726 
	C700.442383,157.747986 701.244568,158.345230 702.104614,159.628632 
	C710.110596,166.854309 723.660889,167.979874 733.709351,162.253906 
	C745.385681,155.600342 751.531799,140.913284 748.202820,126.980675 
	C746.915161,121.591423 745.688171,115.976669 739.844604,112.302513 
	C726.760376,94.942421 710.938721,93.786301 692.958862,105.419609 
	C692.508850,102.726921 692.218140,100.987793 691.907043,99.126282 
	C689.116882,99.126282 686.355774,99.126282 683.359314,99.126282 
	C683.359314,127.400841 683.359314,155.434616 683.359314,183.659897 
	C685.054810,183.796310 686.516052,183.913864 688.168823,184.843994 
	C688.939392,189.526230 690.127319,189.958603 697.827759,188.067291 
	C697.827759,179.399857 697.762573,170.605591 697.885681,161.813965 
	C697.908875,160.159470 698.682983,158.515472 699.640137,157.150726 
M420.889587,159.854767 
	C429.844482,166.807495 439.578888,167.324203 449.886536,163.436234 
	C451.353760,162.882812 452.940369,162.645782 454.539001,163.161499 
	C454.539001,170.043076 454.539001,176.924667 454.539001,183.689774 
	C456.942474,183.892258 458.426880,184.017303 459.893097,184.988098 
	C460.557861,189.496658 461.830872,189.963104 468.745605,188.138138 
	C468.745605,160.265381 468.745605,132.354248 468.745605,103.960815 
	C466.980560,103.960815 465.519287,103.960815 463.853027,103.118279 
	C463.795197,101.841629 463.737366,100.564980 463.671021,99.100243 
	C460.516968,99.100243 457.759857,99.100243 454.797668,99.100243 
	C454.594940,101.790352 454.405884,104.299568 454.180328,107.292603 
	C453.269775,106.553848 452.848846,106.320518 452.572388,105.972420 
	C442.498718,93.289505 415.331451,94.985947 406.523315,114.364311 
	C398.983093,130.953293 404.230621,147.949310 420.889587,159.854767 
M162.500000,36.129013 
	C143.178925,36.135002 123.857582,36.079967 104.536873,36.166496 
	C89.384262,36.234352 82.378708,41.252491 77.076279,55.238644 
	C72.477654,67.368385 67.853790,79.492844 62.914974,91.485336 
	C62.028271,93.638435 59.882008,95.889236 57.759838,96.809669 
	C48.891579,100.656059 43.008564,108.825615 42.965729,118.565941 
	C42.900536,133.389679 42.936905,148.213867 42.929485,163.037857 
	C42.923351,175.299515 42.920319,175.402039 54.855576,175.706192 
	C58.057480,175.787781 59.230614,176.756836 59.200413,180.042725 
	C59.148594,185.680542 59.016151,191.408035 59.895588,196.942459 
	C61.158348,204.889206 66.876778,209.495911 74.320297,209.670273 
	C81.906258,209.847961 88.651131,204.770660 89.905243,197.002808 
	C90.798645,191.469116 90.728264,185.749802 90.727211,180.113388 
	C90.726608,176.904037 91.752426,175.725235 95.027740,175.732803 
	C129.339279,175.812103 163.651169,175.813812 197.962692,175.728851 
	C201.330307,175.720520 202.275543,177.058289 202.149780,180.193207 
	C201.969666,184.682373 201.875397,189.204285 202.208008,193.677765 
	C202.690277,200.163971 204.953796,205.965424 211.682373,208.226852 
	C217.584427,210.210495 223.579041,210.062790 228.551346,205.514526 
	C233.919647,200.604050 233.780670,193.983948 233.785004,187.462143 
	C233.792618,176.006699 233.787125,175.882492 245.130737,175.852142 
	C248.756973,175.842438 250.125656,174.774094 250.090485,171.000275 
	C249.927490,153.512756 250.199402,136.019760 249.911545,118.535378 
	C249.752747,108.891037 244.762924,101.580589 236.177567,97.544373 
	C232.242340,95.694298 230.286606,93.237404 228.878677,89.513084 
	C224.234146,77.227104 219.556732,64.950554 214.653351,52.766415 
	C210.997070,43.681168 205.005890,37.158970 194.414017,36.815289 
	C184.112762,36.481030 173.804947,36.349716 162.500000,36.129013 
z"/>
<path fill="#F4C06C" opacity="1.000000" stroke="none" 
	d="
M163.000000,36.129150 
	C173.804947,36.349716 184.112762,36.481030 194.414017,36.815289 
	C205.005890,37.158970 210.997070,43.681168 214.653351,52.766415 
	C219.556732,64.950554 224.234146,77.227104 228.878677,89.513084 
	C230.286606,93.237404 232.242340,95.694298 236.177567,97.544373 
	C244.762924,101.580589 249.752747,108.891037 249.911545,118.535378 
	C250.199402,136.019760 249.927490,153.512756 250.090485,171.000275 
	C250.125656,174.774094 248.756973,175.842438 245.130737,175.852142 
	C233.787125,175.882492 233.792618,176.006699 233.785004,187.462143 
	C233.780670,193.983948 233.919647,200.604050 228.551346,205.514526 
	C223.579041,210.062790 217.584427,210.210495 211.682373,208.226852 
	C204.953796,205.965424 202.690277,200.163971 202.208008,193.677765 
	C201.875397,189.204285 201.969666,184.682373 202.149780,180.193207 
	C202.275543,177.058289 201.330307,175.720520 197.962692,175.728851 
	C163.651169,175.813812 129.339279,175.812103 95.027740,175.732803 
	C91.752426,175.725235 90.726608,176.904037 90.727211,180.113388 
	C90.728264,185.749802 90.798645,191.469116 89.905243,197.002808 
	C88.651131,204.770660 81.906258,209.847961 74.320297,209.670273 
	C66.876778,209.495911 61.158348,204.889206 59.895588,196.942459 
	C59.016151,191.408035 59.148594,185.680542 59.200413,180.042725 
	C59.230614,176.756836 58.057480,175.787781 54.855576,175.706192 
	C42.920319,175.402039 42.923351,175.299515 42.929485,163.037857 
	C42.936905,148.213867 42.900536,133.389679 42.965729,118.565941 
	C43.008564,108.825615 48.891579,100.656059 57.759838,96.809669 
	C59.882008,95.889236 62.028271,93.638435 62.914974,91.485336 
	C67.853790,79.492844 72.477654,67.368385 77.076279,55.238644 
	C82.378708,41.252491 89.384262,36.234352 104.536873,36.166496 
	C123.857582,36.079967 143.178925,36.135002 163.000000,36.129150 
M80.128136,93.722656 
	C81.741844,94.187241 83.354797,95.054535 84.969360,95.057526 
	C125.782692,95.133057 166.596191,95.120934 207.409653,95.108063 
	C209.164841,95.107506 210.920013,94.953117 212.781677,94.865364 
	C212.781677,93.829010 212.917603,93.296188 212.761841,92.869957 
	C208.596909,81.473183 204.515793,70.043510 200.153305,58.722374 
	C198.526337,54.500187 195.079971,52.155243 190.427628,52.151943 
	C161.108688,52.131126 131.789673,52.132053 102.470795,52.189121 
	C97.386879,52.199017 94.074341,54.931225 92.346725,59.633553 
	C88.274544,70.717453 84.222069,81.808594 80.128136,93.722656 
M72.354126,112.687401 
	C66.091316,113.967537 62.393085,117.971466 61.273346,124.046684 
	C60.252392,129.585938 61.613270,134.710236 66.185364,138.417068 
	C71.793144,142.963593 78.416969,143.029816 84.127693,138.849686 
	C89.113815,135.199951 91.030960,127.733398 88.638802,121.280724 
	C86.303185,114.980568 80.703568,111.787926 72.354126,112.687401 
M223.636459,113.520027 
	C222.202820,113.115517 220.788971,112.609894 219.331985,112.324684 
	C214.108353,111.302116 208.184448,114.039124 205.236740,118.759422 
	C201.862808,124.162254 202.314163,131.053574 206.396683,136.469696 
	C209.625992,140.753906 215.358475,142.679138 220.561630,141.274780 
	C226.847839,139.578094 230.522354,135.255310 231.618942,129.124329 
	C232.796127,122.542786 229.467728,117.669342 223.636459,113.520027 
z"/>
<path fill="#090909" opacity="1.000000" stroke="none" 
	d="
M459.911285,184.142365 
	C458.426880,184.017303 456.942474,183.892258 454.539001,183.689774 
	C454.539001,176.924667 454.539001,170.043076 454.666931,162.264343 
	C454.794891,157.966644 454.794891,154.566101 454.794891,150.553818 
	C444.819916,158.846481 440.425232,161.008163 433.104187,160.682388 
	C429.018555,160.500595 424.961121,159.684906 420.890991,159.154861 
	C404.230621,147.949310 398.983093,130.953293 406.523315,114.364311 
	C415.331451,94.985947 442.498718,93.289505 452.572388,105.972420 
	C452.848846,106.320518 453.269775,106.553848 454.180328,107.292603 
	C454.405884,104.299568 454.594940,101.790352 454.797668,99.100243 
	C457.759857,99.100243 460.516968,99.100243 463.671021,99.100243 
	C463.737366,100.564980 463.795197,101.841629 463.865845,104.003525 
	C463.870239,129.635620 463.826385,154.382599 463.899567,179.129211 
	C463.908386,182.108795 463.837494,184.525497 459.911285,184.142365 
M447.777740,111.398193 
	C438.176300,103.624756 424.946350,104.836517 417.460541,113.914543 
	C409.928467,123.048683 411.481049,141.918777 420.536255,147.372406 
	C429.190887,154.689499 442.504089,153.844833 449.559784,145.530960 
	C457.508850,136.164413 456.686768,119.739616 447.777740,111.398193 
z"/>
<path fill="#090909" opacity="1.000000" stroke="none" 
	d="
M687.977295,184.031418 
	C686.516052,183.913864 685.054810,183.796310 683.359314,183.659897 
	C683.359314,155.434616 683.359314,127.400841 683.359314,99.126282 
	C686.355774,99.126282 689.116882,99.126282 691.907043,99.126282 
	C692.218140,100.987793 692.508850,102.726921 692.958862,105.419609 
	C710.938721,93.786301 726.760376,94.942421 739.950317,112.954193 
	C741.215515,118.240318 742.915588,122.814880 743.436707,127.520027 
	C745.264404,144.021896 733.649963,158.664413 717.224304,160.270599 
	C712.255920,160.756454 707.110901,159.435745 702.046753,158.942490 
	C701.244568,158.345230 700.442383,157.747986 699.242920,156.695419 
	C696.839539,154.675919 694.833435,153.111740 692.248840,151.096512 
	C692.248840,160.995575 692.083679,170.234497 692.334106,179.462128 
	C692.427734,182.911041 691.418701,184.396164 687.977295,184.031418 
M700.118958,147.837463 
	C709.046814,154.977341 722.507141,153.486420 729.471252,144.586288 
	C737.000977,134.963257 735.746948,119.199013 726.787598,111.396088 
	C717.527893,104.034164 703.528809,104.845055 697.213440,113.109108 
	C689.131714,123.684555 690.342957,140.232483 700.118958,147.837463 
z"/>
<path fill="#070707" opacity="1.000000" stroke="none" 
	d="
M776.947021,159.075287 
	C775.904480,158.345551 774.861938,157.615829 773.404602,156.433167 
	C771.152771,154.488663 769.315796,152.997070 767.380188,151.425400 
	C767.161804,152.015869 767.061768,152.160660 767.061218,152.305801 
	C767.027466,161.432755 766.874207,170.562134 767.045105,179.685410 
	C767.104370,182.847504 766.197449,184.368195 762.943726,184.079987 
	C761.454102,183.981064 759.964417,183.882156 758.171204,183.763092 
	C758.171204,155.686279 758.171204,127.594727 758.171204,99.198143 
	C760.871521,99.198143 763.602051,99.198143 766.645447,99.198143 
	C766.880920,100.920845 767.117249,102.649910 767.501221,105.459312 
	C784.890015,94.103600 800.559448,94.707977 813.965454,111.965225 
	C815.235657,115.700333 816.758301,118.725761 817.391785,121.927124 
	C821.114197,140.737457 810.828491,159.751999 789.639893,160.577606 
	C785.434814,160.741455 781.179260,159.609604 776.947021,159.075287 
M802.133606,112.006386 
	C793.108032,104.088982 778.654907,104.430389 772.089111,112.716141 
	C763.872131,123.085640 764.837891,139.882477 774.441528,147.507858 
	C782.683411,154.635071 795.824341,153.807724 803.206421,145.696884 
	C811.406616,136.687103 810.963074,120.737587 802.133606,112.006386 
z"/>
<path fill="#070707" opacity="1.000000" stroke="none" 
	d="
M362.005859,159.992035 
	C360.554016,159.009842 358.456879,158.353119 357.767548,156.986359 
	C355.405182,152.302368 353.536591,147.369324 351.268433,141.856705 
	C349.774658,138.843063 349.454132,136.024750 345.382599,136.152359 
	C334.426178,136.495712 323.448822,136.140991 312.488159,136.408447 
	C310.876404,136.447784 308.581787,138.004791 307.852661,139.478012 
	C305.058777,145.123138 302.933777,151.097580 300.188263,156.769623 
	C299.499542,158.192581 297.429138,158.946747 295.993713,160.008240 
	C293.854034,159.896439 291.714355,159.784622 289.033875,159.644547 
	C294.352661,147.116898 299.549988,134.897552 304.729187,122.670532 
	C310.242554,109.654602 315.753143,96.637466 321.230499,83.606384 
	C322.343567,80.958229 323.204437,78.433228 327.081482,79.013016 
	C330.757050,79.562668 335.400116,77.559723 336.792664,84.070480 
	C347.574677,109.555809 358.123749,134.375046 368.861725,159.638748 
	C365.949005,159.788849 363.977417,159.890442 362.005859,159.992035 
M321.988342,127.972321 
	C329.539581,127.972321 337.090790,127.972321 345.684143,127.972321 
	C340.910095,117.366669 336.475525,107.515190 332.226257,96.954704 
	C331.247833,94.622375 330.269409,92.290039 328.843262,88.890503 
	C323.158600,102.558510 317.994843,114.973999 312.616791,127.904793 
	C316.108032,127.904793 318.584442,127.904793 321.988342,127.972321 
z"/>
<path fill="#090909" opacity="1.000000" stroke="none" 
	d="
M660.968689,160.044342 
	C659.591431,159.995514 658.214172,159.946701 656.366699,159.478241 
	C655.896545,156.494461 655.896545,153.930344 655.896545,150.779022 
	C646.500000,158.692657 642.532043,160.785767 635.161011,160.672806 
	C630.742798,160.605072 626.338074,159.655853 621.927246,159.102829 
	C605.330627,147.956329 599.919006,130.870377 607.746521,114.330612 
	C616.056335,96.771690 638.572266,92.325180 652.995605,105.387375 
	C653.546265,105.886024 654.174316,106.299194 655.398987,107.236282 
	C655.605713,104.095001 655.763184,101.702980 655.934143,99.105133 
	C658.841919,99.105133 661.603577,99.105133 664.755371,99.105133 
	C664.820374,100.526451 664.878418,101.796341 664.939331,103.957954 
	C664.932800,121.768394 664.857117,138.687576 664.975159,155.605408 
	C664.996460,158.657196 664.342163,160.394531 660.968689,160.044342 
M648.836121,111.366791 
	C639.481934,103.612793 626.003418,104.824867 618.581787,113.895691 
	C610.583252,123.671700 613.133484,142.479202 621.641052,147.247391 
	C629.909546,154.719788 643.527954,153.924423 650.667664,145.552078 
	C658.654846,136.186020 657.790955,119.562111 648.836121,111.366791 
z"/>
<path fill="#0B0B0B" opacity="1.000000" stroke="none" 
	d="
M495.858826,159.224792 
	C485.566986,153.106888 481.148712,143.926590 481.346039,132.113800 
	C481.528900,121.165108 481.385010,110.210953 481.385010,99.076065 
	C484.518127,99.076065 487.148529,99.076065 490.326080,99.076065 
	C490.461456,100.393776 490.604523,101.786285 490.759277,104.050476 
	C490.809235,115.379738 490.682861,125.841690 490.960663,136.292908 
	C491.085052,140.973816 492.358307,145.458923 496.941223,148.061310 
	C501.993073,153.479675 508.219238,153.202728 514.383118,151.044785 
	C521.674133,148.492233 525.602722,142.841583 525.837830,135.174088 
	C526.147644,125.068283 525.962830,114.947304 525.988892,104.832848 
	C525.993469,103.041206 525.989502,101.249550 525.989502,99.172043 
	C529.077148,99.172043 531.810242,99.172043 534.956177,99.172043 
	C535.037415,100.422943 535.118958,101.679443 535.201660,103.842461 
	C535.194763,121.610565 535.104492,138.472839 535.249939,155.333115 
	C535.278198,158.609192 534.602539,160.424927 530.998901,160.001709 
	C529.613403,159.969635 528.227905,159.937576 526.449829,159.488861 
	C526.057312,156.857956 526.057312,154.643723 526.057312,151.561111 
	C518.515686,158.065872 511.203430,162.536041 501.657562,160.273544 
	C499.748993,159.821167 497.792969,159.569168 495.858826,159.224792 
z"/>
<path fill="#070707" opacity="1.000000" stroke="none" 
	d="
M384.959808,160.057983 
	C383.319550,159.914948 381.679260,159.771896 379.857483,159.613022 
	C379.857483,131.353577 379.857483,103.246956 379.857483,74.805397 
	C382.697174,74.805397 385.428711,74.805397 388.501556,74.805397 
	C388.648621,76.240700 388.795074,77.670052 388.928986,79.955452 
	C388.893402,105.719887 388.827637,130.628418 388.903625,155.536499 
	C388.912720,158.522125 388.417877,160.410019 384.959808,160.057983 
z"/>
<path fill="#040404" opacity="1.000000" stroke="none" 
	d="
M585.977966,160.031754 
	C584.490295,159.928787 583.002563,159.825836 581.151917,159.697769 
	C581.151917,131.533203 581.151917,103.339966 581.151917,74.817245 
	C583.813354,74.817245 586.550232,74.817245 589.622498,74.817245 
	C589.750305,76.210106 589.881409,77.639633 589.995544,79.939178 
	C589.964966,105.574593 589.913452,130.340088 589.987305,155.105225 
	C589.996216,158.108093 589.887695,160.471329 585.977966,160.031754 
z"/>
<path fill="#0B0B0B" opacity="1.000000" stroke="none" 
	d="
M558.038269,159.953278 
	C556.579346,159.839432 555.120483,159.725571 553.437500,159.594238 
	C553.437500,139.468002 553.437500,119.549088 553.437500,99.255035 
	C556.199951,99.255035 558.926758,99.255035 562.059875,99.255035 
	C562.173157,100.331200 562.304810,101.581886 562.409607,103.745834 
	C562.366943,121.580025 562.248352,138.502014 562.420532,155.421021 
	C562.455872,158.886292 561.458008,160.327454 558.038269,159.953278 
z"/>
<path fill="#989898" opacity="1.000000" stroke="none" 
	d="
M776.968323,159.420959 
	C781.179260,159.609604 785.434814,160.741455 789.639893,160.577606 
	C810.828491,159.751999 821.114197,140.737457 817.391785,121.927124 
	C816.758301,118.725761 815.235657,115.700333 814.181641,112.222717 
	C821.477417,116.741425 823.047424,124.488121 823.475891,132.208313 
	C824.773376,155.582474 806.451599,169.803375 785.920959,164.717804 
	C782.730774,163.927582 779.956299,161.459076 776.968323,159.420959 
z"/>
<path fill="#989898" opacity="1.000000" stroke="none" 
	d="
M702.075684,159.285568 
	C707.110901,159.435745 712.255920,160.756454 717.224304,160.270599 
	C733.649963,158.664413 745.264404,144.021896 743.436707,127.520027 
	C742.915588,122.814880 741.215515,118.240318 740.142578,113.230659 
	C745.688171,115.976669 746.915161,121.591423 748.202820,126.980675 
	C751.531799,140.913284 745.385681,155.600342 733.709351,162.253906 
	C723.660889,167.979874 710.110596,166.854309 702.075684,159.285568 
z"/>
<path fill="#939393" opacity="1.000000" stroke="none" 
	d="
M295.987396,160.396408 
	C297.429138,158.946747 299.499542,158.192581 300.188263,156.769623 
	C302.933777,151.097580 305.058777,145.123138 307.852661,139.478012 
	C308.581787,138.004791 310.876404,136.447784 312.488159,136.408447 
	C323.448822,136.140991 334.426178,136.495712 345.382599,136.152359 
	C349.454132,136.024750 349.774658,138.843063 351.071320,141.553619 
	C339.636139,141.816223 328.185486,141.604767 316.739014,141.741669 
	C315.455902,141.757019 313.697052,143.498535 313.019318,144.866013 
	C310.959961,149.021210 309.327606,153.387650 307.519836,157.667969 
	C304.235901,165.443588 304.233154,165.442429 295.073334,164.481262 
	C295.385834,163.208633 295.683441,161.996597 295.987396,160.396408 
z"/>
<path fill="#9C9C9C" opacity="1.000000" stroke="none" 
	d="
M459.902191,184.565231 
	C463.837494,184.525497 463.908386,182.108795 463.899567,179.129211 
	C463.826385,154.382599 463.870239,129.635620 463.968353,104.424789 
	C465.519287,103.960815 466.980560,103.960815 468.745605,103.960815 
	C468.745605,132.354248 468.745605,160.265381 468.745605,188.138138 
	C461.830872,189.963104 460.557861,189.496658 459.902191,184.565231 
z"/>
<path fill="#999999" opacity="1.000000" stroke="none" 
	d="
M384.975006,160.482452 
	C388.417877,160.410019 388.912720,158.522125 388.903625,155.536499 
	C388.827637,130.628418 388.893402,105.719887 389.044952,80.350510 
	C390.630188,79.889511 392.086884,79.889511 393.797119,79.889511 
	C393.797119,108.234932 393.797119,136.219879 393.797119,164.160431 
	C386.495209,165.792892 385.525848,165.421417 384.975006,160.482452 
z"/>
<path fill="#999999" opacity="1.000000" stroke="none" 
	d="
M586.008301,160.454407 
	C589.887695,160.471329 589.996216,158.108093 589.987305,155.105225 
	C589.913452,130.340088 589.964966,105.574593 590.090027,80.344040 
	C591.659607,79.878891 593.117615,79.878891 594.846802,79.878891 
	C594.846802,108.235298 594.846802,136.216293 594.846802,164.149841 
	C587.570312,165.822601 586.588867,165.443634 586.008301,160.454407 
z"/>
<path fill="#939393" opacity="1.000000" stroke="none" 
	d="
M558.177734,160.349426 
	C561.458008,160.327454 562.455872,158.886292 562.420532,155.421021 
	C562.248352,138.502014 562.366943,121.580025 562.486938,104.182045 
	C564.210022,103.913559 565.828857,104.122124 567.637695,104.355164 
	C567.637695,124.429909 567.637695,144.311615 567.637695,164.139908 
	C559.911255,165.828674 558.939514,165.459595 558.177734,160.349426 
z"/>
<path fill="#9C9C9C" opacity="1.000000" stroke="none" 
	d="
M531.069824,160.419067 
	C534.602539,160.424927 535.278198,158.609192 535.249939,155.333115 
	C535.104492,138.472839 535.194763,121.610565 535.289429,104.274673 
	C537.008179,103.926292 538.640259,104.052216 540.501953,104.195854 
	C540.501953,124.401138 540.501953,144.315659 540.501953,164.172348 
	C532.845032,165.860489 531.707886,165.436371 531.069824,160.419067 
z"/>
<path fill="#989898" opacity="1.000000" stroke="none" 
	d="
M362.139893,160.338837 
	C363.977417,159.890442 365.949005,159.788849 368.861725,159.638748 
	C358.123749,134.375046 347.574677,109.555809 337.012390,84.368622 
	C338.391876,84.900238 340.524933,85.481789 341.068054,86.746277 
	C352.064850,112.347603 362.879547,138.027100 373.717957,163.696365 
	C373.767365,163.813370 373.632446,164.008194 373.430542,164.663040 
	C369.418427,164.290451 364.327911,167.420715 362.139893,160.338837 
z"/>
<path fill="#9A9A9A" opacity="1.000000" stroke="none" 
	d="
M660.991089,160.469757 
	C664.342163,160.394531 664.996460,158.657196 664.975159,155.605408 
	C664.857117,138.687576 664.932800,121.768394 665.034241,104.383308 
	C666.593506,104.001854 668.060669,104.086777 669.807373,104.187874 
	C669.807373,124.363708 669.807373,144.270782 669.807373,164.132538 
	C662.581299,165.844086 661.516602,165.437500 660.991089,160.469757 
z"/>
<path fill="#969696" opacity="1.000000" stroke="none" 
	d="
M688.073059,184.437714 
	C691.418701,184.396164 692.427734,182.911041 692.334106,179.462128 
	C692.083679,170.234497 692.248840,160.995575 692.248840,151.096512 
	C694.833435,153.111740 696.839539,154.675919 698.978149,156.553375 
	C698.682983,158.515472 697.908875,160.159470 697.885681,161.813965 
	C697.762573,170.605591 697.827759,179.399857 697.827759,188.067291 
	C690.127319,189.958603 688.939392,189.526230 688.073059,184.437714 
z"/>
<path fill="#939393" opacity="1.000000" stroke="none" 
	d="
M420.890289,159.504822 
	C424.961121,159.684906 429.018555,160.500595 433.104187,160.682388 
	C440.425232,161.008163 444.819916,158.846481 454.794891,150.553818 
	C454.794891,154.566101 454.794891,157.966644 454.633301,161.814758 
	C452.940369,162.645782 451.353760,162.882812 449.886536,163.436234 
	C439.578888,167.324203 429.844482,166.807495 420.890289,159.504822 
z"/>
<path fill="#9A9A9A" opacity="1.000000" stroke="none" 
	d="
M497.039948,147.638062 
	C492.358307,145.458923 491.085052,140.973816 490.960663,136.292908 
	C490.682861,125.841690 490.809235,115.379738 490.880829,104.464615 
	C492.452759,104.007072 493.914825,104.007072 495.369781,104.007072 
	C495.968903,118.641518 496.553802,132.928162 497.039948,147.638062 
z"/>
<path fill="#979797" opacity="1.000000" stroke="none" 
	d="
M621.916443,159.454300 
	C626.338074,159.655853 630.742798,160.605072 635.161011,160.672806 
	C642.532043,160.785767 646.500000,158.692657 655.896545,150.779022 
	C655.896545,153.930344 655.896545,156.494461 655.951782,159.494186 
	C648.112061,167.916382 631.095886,167.854492 621.916443,159.454300 
z"/>
<path fill="#969696" opacity="1.000000" stroke="none" 
	d="
M762.979614,184.499573 
	C766.197449,184.368195 767.104370,182.847504 767.045105,179.685410 
	C766.874207,170.562134 767.027466,161.432755 767.061218,152.305801 
	C767.061768,152.160660 767.161804,152.015869 767.380188,151.425400 
	C769.315796,152.997070 771.152771,154.488663 773.123657,156.282990 
	C772.885376,158.440567 772.216370,160.291504 772.192017,162.150894 
	C772.077942,170.856903 772.141357,179.565247 772.141357,189.226181 
	C768.636963,187.433167 763.377014,192.473877 762.979614,184.499573 
z"/>
<path fill="#989898" opacity="1.000000" stroke="none" 
	d="
M495.889648,159.567520 
	C497.792969,159.569168 499.748993,159.821167 501.657562,160.273544 
	C511.203430,162.536041 518.515686,158.065872 526.057312,151.561111 
	C526.057312,154.643723 526.057312,156.857956 526.033203,159.496674 
	C518.976501,167.887009 503.900574,167.881531 495.889648,159.567520 
z"/>
<path fill="#0F0F0F" opacity="1.000000" stroke="none" 
	d="
M558.019104,88.973099 
	C556.552307,88.851158 555.085510,88.729218 553.256958,88.577202 
	C553.256958,84.841156 553.256958,81.138969 553.256958,77.400604 
	C560.272888,75.684357 562.349792,76.277100 562.870544,81.042450 
	C562.841675,84.079514 562.841675,86.277481 562.841675,88.585976 
	C560.866394,88.744530 559.442749,88.858810 558.019104,88.973099 
z"/>
<path fill="#A0A0A0" opacity="1.000000" stroke="none" 
	d="
M558.057495,89.396393 
	C559.442749,88.858810 560.866394,88.744530 562.841675,88.585976 
	C562.841675,86.277481 562.841675,84.079514 562.913757,81.445709 
	C564.564636,81.405396 566.143372,81.800919 567.866333,82.232559 
	C567.866333,86.016556 567.866333,89.584915 567.866333,93.091431 
	C560.208374,94.939743 558.649292,94.393761 558.057495,89.396393 
z"/>
<path fill="#FFFEFC" opacity="1.000000" stroke="none" 
	d="
M80.144882,93.309731 
	C84.222069,81.808594 88.274544,70.717453 92.346725,59.633553 
	C94.074341,54.931225 97.386879,52.199017 102.470795,52.189121 
	C131.789673,52.132053 161.108688,52.131126 190.427628,52.151943 
	C195.079971,52.155243 198.526337,54.500187 200.153305,58.722374 
	C204.515793,70.043510 208.596909,81.473183 212.761841,92.869957 
	C212.917603,93.296188 212.781677,93.829010 212.781677,94.865364 
	C210.920013,94.953117 209.164841,95.107506 207.409653,95.108063 
	C166.596191,95.120934 125.782692,95.133057 84.969360,95.057526 
	C83.354797,95.054535 81.741844,94.187241 80.144882,93.309731 
z"/>
<path fill="#FEFDF7" opacity="1.000000" stroke="none" 
	d="
M72.734726,112.558678 
	C80.703568,111.787926 86.303185,114.980568 88.638802,121.280724 
	C91.030960,127.733398 89.113815,135.199951 84.127693,138.849686 
	C78.416969,143.029816 71.793144,142.963593 66.185364,138.417068 
	C61.613270,134.710236 60.252392,129.585938 61.273346,124.046684 
	C62.393085,117.971466 66.091316,113.967537 72.734726,112.558678 
z"/>
<path fill="#FEFDF7" opacity="1.000000" stroke="none" 
	d="
M223.966309,113.712257 
	C229.467728,117.669342 232.796127,122.542786 231.618942,129.124329 
	C230.522354,135.255310 226.847839,139.578094 220.561630,141.274780 
	C215.358475,142.679138 209.625992,140.753906 206.396683,136.469696 
	C202.314163,131.053574 201.862808,124.162254 205.236740,118.759422 
	C208.184448,114.039124 214.108353,111.302116 219.331985,112.324684 
	C220.788971,112.609894 222.202820,113.115517 223.966309,113.712257 
z"/>
<path fill="#FCFCFC" opacity="1.000000" stroke="none" 
	d="
M447.886108,112.091362 
	C456.686768,119.739616 457.508850,136.164413 449.559784,145.530960 
	C442.504089,153.844833 429.190887,154.689499 420.368896,146.691406 
	C419.591705,143.956726 418.848206,141.932159 418.393616,139.844666 
	C415.254730,125.431763 423.501465,113.033234 437.604828,111.366074 
	C440.956512,110.969879 444.455109,111.816437 447.886108,112.091362 
z"/>
<path fill="#969696" opacity="1.000000" stroke="none" 
	d="
M447.831909,111.744781 
	C444.455109,111.816437 440.956512,110.969879 437.604828,111.366074 
	C423.501465,113.033234 415.254730,125.431763 418.393616,139.844666 
	C418.848206,141.932159 419.591705,143.956726 420.175751,146.405029 
	C411.481049,141.918777 409.928467,123.048683 417.460541,113.914543 
	C424.946350,104.836517 438.176300,103.624756 447.831909,111.744781 
z"/>
<path fill="#FCFCFC" opacity="1.000000" stroke="none" 
	d="
M726.886353,112.091820 
	C735.746948,119.199013 737.000977,134.963257 729.471252,144.586288 
	C722.507141,153.486420 709.046814,154.977341 699.970703,147.162048 
	C698.988708,143.452591 697.727234,140.464005 697.399109,137.376251 
	C696.285767,126.897354 700.422180,112.827477 716.524048,111.362335 
	C719.927856,111.052628 723.429688,111.820465 726.886353,112.091820 
z"/>
<path fill="#979797" opacity="1.000000" stroke="none" 
	d="
M726.836975,111.743958 
	C723.429688,111.820465 719.927856,111.052628 716.524048,111.362335 
	C700.422180,112.827477 696.285767,126.897354 697.399109,137.376251 
	C697.727234,140.464005 698.988708,143.452591 699.767944,146.875854 
	C690.342957,140.232483 689.131714,123.684555 697.213440,113.109108 
	C703.528809,104.845055 717.527893,104.034164 726.836975,111.743958 
z"/>
<path fill="#FCFCFC" opacity="1.000000" stroke="none" 
	d="
M802.288086,112.677208 
	C810.963074,120.737587 811.406616,136.687103 803.206421,145.696884 
	C795.824341,153.807724 782.683411,154.635071 774.298584,146.820221 
	C773.564575,144.064850 772.810547,142.028183 772.409790,139.924210 
	C770.270996,128.695679 774.294373,112.563705 791.542236,111.373657 
	C795.077393,111.129730 798.703735,112.208260 802.288086,112.677208 
z"/>
<path fill="#979797" opacity="1.000000" stroke="none" 
	d="
M802.210815,112.341797 
	C798.703735,112.208260 795.077393,111.129730 791.542236,111.373657 
	C774.294373,112.563705 770.270996,128.695679 772.409790,139.924210 
	C772.810547,142.028183 773.564575,144.064850 774.106018,146.532440 
	C764.837891,139.882477 763.872131,123.085640 772.089111,112.716141 
	C778.654907,104.430389 793.108032,104.088982 802.210815,112.341797 
z"/>
<path fill="#F7F7F7" opacity="1.000000" stroke="none" 
	d="
M332.040955,97.663712 
	C336.475525,107.515190 340.910095,117.366669 345.684143,127.972321 
	C337.090790,127.972321 329.539581,127.972321 321.447937,127.552902 
	C321.347046,125.565231 321.658325,123.946968 322.247284,122.437042 
	C325.474243,114.164589 328.769318,105.918716 332.040955,97.663712 
z"/>
<path fill="#969696" opacity="1.000000" stroke="none" 
	d="
M332.133606,97.309204 
	C328.769318,105.918716 325.474243,114.164589 322.247284,122.437042 
	C321.658325,123.946968 321.347046,125.565231 320.984222,127.519135 
	C318.584442,127.904793 316.108032,127.904793 312.616791,127.904793 
	C317.994843,114.973999 323.158600,102.558510 328.843262,88.890503 
	C330.269409,92.290039 331.247833,94.622375 332.133606,97.309204 
z"/>
<path fill="#FCFCFC" opacity="1.000000" stroke="none" 
	d="
M648.927307,112.061340 
	C657.790955,119.562111 658.654846,136.186020 650.667664,145.552078 
	C643.527954,153.924423 629.909546,154.719788 621.450684,146.586670 
	C620.601624,143.525742 619.778503,141.157043 619.311462,138.720108 
	C616.660034,124.884796 624.957520,112.953133 638.573792,111.385963 
	C641.954285,110.996887 645.472412,111.804039 648.927307,112.061340 
z"/>
<path fill="#969696" opacity="1.000000" stroke="none" 
	d="
M648.881714,111.714066 
	C645.472412,111.804039 641.954285,110.996887 638.573792,111.385963 
	C624.957520,112.953133 616.660034,124.884796 619.311462,138.720108 
	C619.778503,141.157043 620.601624,143.525742 621.224976,146.322418 
	C613.133484,142.479202 610.583252,123.671700 618.581787,113.895691 
	C626.003418,104.824867 639.481934,103.612793 648.881714,111.714066 
z"/>
</svg>